{
	"asset":{
		"generator":"Khronos glTF Blender I/O v4.3.47",
		"version":"2.0"
	},
	"extensionsUsed":[
		"KHR_materials_transmission",
		"KHR_materials_ior"
	],
	"scene":0,
	"scenes":[
		{
			"name":"Scene",
			"nodes":[
				3
			]
		}
	],
	"nodes":[
		{
			"mesh":0,
			"name":"Circle.001",
			"translation":[
				0,
				6.298381805419922,
				0
			]
		},
		{
			"mesh":1,
			"name":"poison.001"
		},
		{
			"mesh":2,
			"name":"skull.001",
			"translation":[
				-0.0009236838668584824,
				2.087977647781372,
				1.8853635787963867
			]
		},
		{
			"children":[
				0,
				1,
				2
			],
			"mesh":3,
			"name":"poison potion.001",
			"rotation":[
				-0.00044808039092458785,
				0.007074559107422829,
				0.010198245756328106,
				0.9999228715896606
			]
		}
	],
	"materials":[
		{
			"doubleSided":true,
			"name":"Material.003",
			"pbrMetallicRoughness":{
				"baseColorTexture":{
					"index":0
				},
				"metallicFactor":0,
				"roughnessFactor":0.9825688600540161
			}
		},
		{
			"doubleSided":true,
			"extensions":{
				"KHR_materials_transmission":{
					"transmissionFactor":1
				},
				"KHR_materials_ior":{
					"ior":1.0199999809265137
				}
			},
			"name":"glass.001",
			"pbrMetallicRoughness":{
				"baseColorFactor":[
					0.8932610750198364,
					0,
					0.49838608503341675,
					1
				],
				"metallicFactor":0.36690905690193176,
				"roughnessFactor":0.04181817173957825
			}
		},
		{
			"doubleSided":true,
			"name":"Material.002",
			"pbrMetallicRoughness":{
				"baseColorFactor":[
					0.025025971233844757,
					0.025025971233844757,
					0.025025971233844757,
					1
				],
				"metallicFactor":0,
				"roughnessFactor":0.2614678740501404
			}
		},
		{
			"doubleSided":true,
			"extensions":{
				"KHR_materials_transmission":{
					"transmissionFactor":1
				},
				"KHR_materials_ior":{
					"ior":1.100000023841858
				}
			},
			"name":"glass.004",
			"pbrMetallicRoughness":{
				"baseColorFactor":[
					0.800000011920929,
					0.800000011920929,
					0.800000011920929,
					1
				],
				"metallicFactor":0.05454545468091965,
				"metallicRoughnessTexture":{
					"index":1
				}
			}
		}
	],
	"meshes":[
		{
			"name":"Circle.001",
			"primitives":[
				{
					"attributes":{
						"POSITION":0,
						"NORMAL":1,
						"TEXCOORD_0":2
					},
					"indices":3,
					"material":0
				}
			]
		},
		{
			"name":"Vert.005",
			"primitives":[
				{
					"attributes":{
						"POSITION":4,
						"NORMAL":5
					},
					"indices":6,
					"material":1
				}
			]
		},
		{
			"name":"Plane.002",
			"primitives":[
				{
					"attributes":{
						"POSITION":7,
						"NORMAL":8,
						"TEXCOORD_0":9
					},
					"indices":10,
					"material":2
				}
			]
		},
		{
			"name":"Vert.004",
			"primitives":[
				{
					"attributes":{
						"POSITION":11,
						"NORMAL":12,
						"TEXCOORD_0":13
					},
					"indices":14,
					"material":3
				}
			]
		}
	],
	"textures":[
		{
			"sampler":0,
			"source":0
		},
		{
			"sampler":0,
			"source":1
		}
	],
	"images":[
		{
			"mimeType":"image/png",
			"name":"Untitled",
			"uri":"Untitled.png"
		},
		{
			"mimeType":"image/png",
			"name":"Untitled",
			"uri":"Untitled-1.png"
		}
	],
	"accessors":[
		{
			"bufferView":0,
			"componentType":5126,
			"count":1206,
			"max":[
				0.5252609848976135,
				0.9328163862228394,
				0.49077466130256653
			],
			"min":[
				-0.5320797562599182,
				-0.2643927037715912,
				-0.5322496294975281
			],
			"type":"VEC3"
		},
		{
			"bufferView":1,
			"componentType":5126,
			"count":1206,
			"type":"VEC3"
		},
		{
			"bufferView":2,
			"componentType":5126,
			"count":1206,
			"type":"VEC2"
		},
		{
			"bufferView":3,
			"componentType":5123,
			"count":6336,
			"type":"SCALAR"
		},
		{
			"bufferView":4,
			"componentType":5126,
			"count":3297,
			"max":[
				1.7431985139846802,
				3.2405993938446045,
				1.7757744789123535
			],
			"min":[
				-1.7758876085281372,
				0.24003073573112488,
				-1.7761101722717285
			],
			"type":"VEC3"
		},
		{
			"bufferView":5,
			"componentType":5126,
			"count":3297,
			"type":"VEC3"
		},
		{
			"bufferView":6,
			"componentType":5123,
			"count":19584,
			"type":"SCALAR"
		},
		{
			"bufferView":7,
			"componentType":5126,
			"count":28930,
			"max":[
				0.8020943403244019,
				0.5907843112945557,
				0.05795250087976456
			],
			"min":[
				-0.7852379083633423,
				-1.473499059677124,
				-0.5893197655677795
			],
			"type":"VEC3"
		},
		{
			"bufferView":8,
			"componentType":5126,
			"count":28930,
			"type":"VEC3"
		},
		{
			"bufferView":9,
			"componentType":5126,
			"count":28930,
			"type":"VEC2"
		},
		{
			"bufferView":10,
			"componentType":5123,
			"count":173568,
			"type":"SCALAR"
		},
		{
			"bufferView":11,
			"componentType":5126,
			"count":48693,
			"max":[
				1.9347596168518066,
				6.607109069824219,
				1.9347596168518066
			],
			"min":[
				-1.9347596168518066,
				0.07882732152938843,
				-1.9347596168518066
			],
			"type":"VEC3"
		},
		{
			"bufferView":12,
			"componentType":5126,
			"count":48693,
			"type":"VEC3"
		},
		{
			"bufferView":13,
			"componentType":5126,
			"count":48693,
			"type":"VEC2"
		},
		{
			"bufferView":14,
			"componentType":5123,
			"count":273408,
			"type":"SCALAR"
		}
	],
	"bufferViews":[
		{
			"buffer":0,
			"byteLength":14472,
			"byteOffset":0,
			"target":34962
		},
		{
			"buffer":0,
			"byteLength":14472,
			"byteOffset":14472,
			"target":34962
		},
		{
			"buffer":0,
			"byteLength":9648,
			"byteOffset":28944,
			"target":34962
		},
		{
			"buffer":0,
			"byteLength":12672,
			"byteOffset":38592,
			"target":34963
		},
		{
			"buffer":0,
			"byteLength":39564,
			"byteOffset":51264,
			"target":34962
		},
		{
			"buffer":0,
			"byteLength":39564,
			"byteOffset":90828,
			"target":34962
		},
		{
			"buffer":0,
			"byteLength":39168,
			"byteOffset":130392,
			"target":34963
		},
		{
			"buffer":0,
			"byteLength":347160,
			"byteOffset":169560,
			"target":34962
		},
		{
			"buffer":0,
			"byteLength":347160,
			"byteOffset":516720,
			"target":34962
		},
		{
			"buffer":0,
			"byteLength":231440,
			"byteOffset":863880,
			"target":34962
		},
		{
			"buffer":0,
			"byteLength":347136,
			"byteOffset":1095320,
			"target":34963
		},
		{
			"buffer":0,
			"byteLength":584316,
			"byteOffset":1442456,
			"target":34962
		},
		{
			"buffer":0,
			"byteLength":584316,
			"byteOffset":2026772,
			"target":34962
		},
		{
			"buffer":0,
			"byteLength":389544,
			"byteOffset":2611088,
			"target":34962
		},
		{
			"buffer":0,
			"byteLength":546816,
			"byteOffset":3000632,
			"target":34963
		}
	],
	"samplers":[
		{
			"magFilter":9729,
			"minFilter":9987
		}
	],
	"buffers":[
		{
			"byteLength":3547448,
			"uri":"poison_bottle2.bin"
		}
	]
}
