{
  "accessors": [
    {
      "bufferView": 2,
      "componentType": 5126,
      "count": 102,
      "max": [
        0.1552889198064804,
        0.4263683259487152,
        2.9364216327667236
      ],
      "min": [
        -0.1552889198064804,
        -0.8890389204025269,
        -1.6275689601898193
      ],
      "type": "VEC3"
    },
    {
      "bufferView": 2,
      "byteOffset": 1224,
      "componentType": 5126,
      "count": 102,
      "max": [
        0.9996773600578308,
        0.9999256134033203,
        1.0
      ],
      "min": [
        -0.9996773600578308,
        -1.0,
        -1.0
      ],
      "type": "VEC3"
    },
    {
      "bufferView": 1,
      "componentType": 5126,
      "count": 102,
      "max": [
        0.9682000279426575,
        0.993484616279602
      ],
      "min": [
        0.006515371613204479,
        0.006515383720397949
      ],
      "type": "VEC2"
    },
    {
      "bufferView": 0,
      "componentType": 5125,
      "count": 156,
      "type": "SCALAR"
    }
  ],
  "asset": {
    "extras": {
      "author": "Charckes (https://sketchfab.com/charlesmoch)",
      "license": "SKETCHFAB Standard (https://sketchfab.com/licenses)",
      "source": "https://sketchfab.com/3d-models/psx-bloody-cleaver-knife-b8a1539f7e1d49628552dc72113b8149",
      "title": "PSX  Bloody Cleaver Knife"
    },
    "generator": "Sketchfab-16.52.0",
    "version": "2.0"
  },
  "bufferViews": [
    {
      "buffer": 0,
      "byteLength": 624,
      "name": "floatBufferViews",
      "target": 34963
    },
    {
      "buffer": 0,
      "byteLength": 816,
      "byteOffset": 624,
      "byteStride": 8,
      "name": "floatBufferViews",
      "target": 34962
    },
    {
      "buffer": 0,
      "byteLength": 2448,
      "byteOffset": 1440,
      "byteStride": 12,
      "name": "floatBufferViews",
      "target": 34962
    }
  ],
  "buffers": [
    {
      "byteLength": 3888,
      "uri": "scene.bin"
    }
  ],
  "images": [
    {
      "uri": "textures/M_CleaverKnife_baseColor.png"
    }
  ],
  "materials": [
    {
      "doubleSided": true,
      "name": "M_CleaverKnife",
      "pbrMetallicRoughness": {
        "baseColorTexture": {
          "index": 0
        },
        "metallicFactor": 0.0,
        "roughnessFactor": 0.5
      }
    }
  ],
  "meshes": [
    {
      "name": "Object_0",
      "primitives": [
        {
          "attributes": {
            "NORMAL": 1,
            "POSITION": 0,
            "TEXCOORD_0": 2
          },
          "indices": 3,
          "material": 0,
          "mode": 4
        }
      ]
    }
  ],
  "nodes": [
    {
      "children": [
        1
      ],
      "matrix": [
        1.0,
        0.0,
        0.0,
        0.0,
        0.0,
        2.220446049250313e-16,
        -1.0,
        0.0,
        0.0,
        1.0,
        2.220446049250313e-16,
        0.0,
        0.0,
        0.0,
        0.0,
        1.0
      ],
      "name": "Sketchfab_model"
    },
    {
      "children": [
        2
      ],
      "name": "root"
    },
    {
      "children": [
        3
      ],
      "matrix": [
        1.0,
        0.0,
        0.0,
        0.0,
        0.0,
        2.220446049250313e-16,
        1.0,
        0.0,
        0.0,
        -1.0,
        2.220446049250313e-16,
        0.0,
        0.0,
        0.0,
        0.0,
        1.0
      ],
      "name": "GLTF_SceneRootNode"
    },
    {
      "children": [
        4
      ],
      "matrix": [
        0.08818113803863525,
        0.0,
        0.0,
        0.0,
        0.0,
        0.08818113803863525,
        0.0,
        0.0,
        0.0,
        0.0,
        0.08818113803863525,
        0.0,
        0.0,
        0.07840762287378311,
        -0.059236038476228714,
        1.0
      ],
      "name": "SM_CleaverKnife_0"
    },
    {
      "mesh": 0,
      "name": "Object_4"
    }
  ],
  "samplers": [
    {
      "magFilter": 9728,
      "minFilter": 9728,
      "wrapS": 10497,
      "wrapT": 10497
    }
  ],
  "scene": 0,
  "scenes": [
    {
      "name": "Sketchfab_Scene",
      "nodes": [
        0
      ]
    }
  ],
  "textures": [
    {
      "sampler": 0,
      "source": 0
    }
  ]
}
