{
  "accessors": [
    {
      "bufferView": 2,
      "componentType": 5126,
      "count": 82,
      "max": [
        0.14476491510868073,
        1.6085307663615822e-07,
        0.17981009185314178
      ],
      "min": [
        -0.12693841755390167,
        1.6085307663615822e-07,
        -0.21375775337219238
      ],
      "type": "VEC3"
    },
    {
      "bufferView": 2,
      "byteOffset": 984,
      "componentType": 5126,
      "count": 82,
      "max": [
        0.0,
        1.0,
        7.573766917443048e-13
      ],
      "min": [
        0.0,
        1.0,
        -3.9540495443829426e-13
      ],
      "type": "VEC3"
    },
    {
      "bufferView": 1,
      "componentType": 5126,
      "count": 82,
      "max": [
        0.7943968176841736,
        0.9530506134033203
      ],
      "min": [
        0.00691244238987565,
        0.006987577769905329
      ],
      "type": "VEC2"
    },
    {
      "bufferView": 0,
      "componentType": 5125,
      "count": 312,
      "type": "SCALAR"
    }
  ],
  "asset": {
    "extras": {
      "author": "itd_cnr (https://sketchfab.com/itd_cnr)",
      "license": "CC-BY-NC-SA-4.0 (http://creativecommons.org/licenses/by-nc-sa/4.0/)",
      "source": "https://sketchfab.com/3d-models/pbis-footsteps-bd01a6968cab4846b25dc7327ce20f5f",
      "title": "PBIS Footsteps"
    },
    "generator": "Sketchfab-13.98.0",
    "version": "2.0"
  },
  "bufferViews": [
    {
      "buffer": 0,
      "byteLength": 1248,
      "name": "floatBufferViews",
      "target": 34963
    },
    {
      "buffer": 0,
      "byteLength": 656,
      "byteOffset": 1248,
      "byteStride": 8,
      "name": "floatBufferViews",
      "target": 34962
    },
    {
      "buffer": 0,
      "byteLength": 1968,
      "byteOffset": 1904,
      "byteStride": 12,
      "name": "floatBufferViews",
      "target": 34962
    }
  ],
  "buffers": [
    {
      "byteLength": 3872,
      "uri": "scene.bin"
    }
  ],
  "materials": [
    {
      "doubleSided": true,
      "name": "Footstep",
      "pbrMetallicRoughness": {
        "baseColorFactor": [
          0.590619,
          0.138432,
          0.141263,
          1.0
        ],
        "metallicFactor": 0.0,
        "roughnessFactor": 0.9257587790733407
      }
    }
  ],
  "meshes": [
    {
      "name": "Footsteps_Footstep_0",
      "primitives": [
        {
          "attributes": {
            "NORMAL": 1,
            "POSITION": 0,
            "TEXCOORD_0": 2
          },
          "indices": 3,
          "material": 0,
          "mode": 4
        }
      ]
    }
  ],
  "nodes": [
    {
      "children": [
        1
      ],
      "matrix": [
        1.0,
        0.0,
        0.0,
        0.0,
        0.0,
        2.220446049250313e-16,
        -1.0,
        0.0,
        0.0,
        1.0,
        2.220446049250313e-16,
        0.0,
        0.0,
        0.0,
        0.0,
        1.0
      ],
      "name": "Sketchfab_model"
    },
    {
      "children": [
        2
      ],
      "matrix": [
        1.0,
        0.0,
        0.0,
        0.0,
        0.0,
        0.0,
        1.0,
        0.0,
        0.0,
        -1.0,
        0.0,
        0.0,
        0.0,
        0.0,
        0.0,
        1.0
      ],
      "name": "bbb08a65fc8a4167a752be59f7d421ef.fbx"
    },
    {
      "children": [
        3
      ],
      "name": "RootNode"
    },
    {
      "children": [
        4
      ],
      "matrix": [
        1.0,
        0.0,
        0.0,
        0.0,
        0.0,
        0.9999999999999867,
        1.6292068494294585e-07,
        0.0,
        0.0,
        -1.6292068494294585e-07,
        0.9999999999999867,
        0.0,
        0.0,
        0.0,
        0.0,
        1.0
      ],
      "name": "Footsteps"
    },
    {
      "mesh": 0,
      "name": "Footsteps_Footstep_0"
    }
  ],
  "scene": 0,
  "scenes": [
    {
      "name": "Sketchfab_Scene",
      "nodes": [
        0
      ]
    }
  ]
}
