{
  "accessors": [
    {
      "bufferView": 2,
      "componentType": 5126,
      "count": 864,
      "max": [
        0.47749200463294983,
        -0.012446999549865723,
        1.3608249425888062
      ],
      "min": [
        -0.39055898785591125,
        -0.037422001361846924,
        0.4870690107345581
      ],
      "type": "VEC3"
    },
    {
      "bufferView": 2,
      "byteOffset": 10368,
      "componentType": 5126,
      "count": 864,
      "max": [
        0.9999876022338867,
        0.9999709725379944,
        1.0
      ],
      "min": [
        -0.9999876022338867,
        -0.9999709725379944,
        -1.0
      ],
      "type": "VEC3"
    },
    {
      "bufferView": 3,
      "componentType": 5126,
      "count": 864,
      "max": [
        0.21497668325901031,
        0.9999988675117493,
        0.9999125003814697,
        1.0
      ],
      "min": [
        -0.3032976984977722,
        -0.08774760365486145,
        -0.9999839067459106,
        1.0
      ],
      "type": "VEC4"
    },
    {
      "bufferView": 1,
      "componentType": 5126,
      "count": 864,
      "max": [
        0.9590870141983032,
        0.9941629767417908
      ],
      "min": [
        0.011989000253379345,
        0.004013000056147575
      ],
      "type": "VEC2"
    },
    {
      "bufferView": 0,
      "componentType": 5125,
      "count": 2160,
      "type": "SCALAR"
    }
  ],
  "asset": {
    "extras": {
      "author": "Ash Kelly (https://sketchfab.com/mewy)",
      "license": "CC-BY-4.0 (http://creativecommons.org/licenses/by/4.0/)",
      "source": "https://sketchfab.com/3d-models/floor-cabin-asset-44bc8a420ed24cdea969f0266fd25712",
      "title": "Floor Cabin Asset"
    },
    "generator": "Sketchfab-15.59.0",
    "version": "2.0"
  },
  "bufferViews": [
    {
      "buffer": 0,
      "byteLength": 8640,
      "name": "floatBufferViews",
      "target": 34963
    },
    {
      "buffer": 0,
      "byteLength": 6912,
      "byteOffset": 8640,
      "byteStride": 8,
      "name": "floatBufferViews",
      "target": 34962
    },
    {
      "buffer": 0,
      "byteLength": 20736,
      "byteOffset": 15552,
      "byteStride": 12,
      "name": "floatBufferViews",
      "target": 34962
    },
    {
      "buffer": 0,
      "byteLength": 13824,
      "byteOffset": 36288,
      "byteStride": 16,
      "name": "floatBufferViews",
      "target": 34962
    }
  ],
  "buffers": [
    {
      "byteLength": 50112,
      "uri": "scene.bin"
    }
  ],
  "images": [
    {
      "uri": "textures/standardSurface10_baseColor.jpeg"
    },
    {
      "uri": "textures/standardSurface10_metallicRoughness.png"
    },
    {
      "uri": "textures/standardSurface10_normal.png"
    }
  ],
  "materials": [
    {
      "doubleSided": true,
      "name": "standardSurface10",
      "normalTexture": {
        "index": 2
      },
      "pbrMetallicRoughness": {
        "baseColorTexture": {
          "index": 0
        },
        "metallicRoughnessTexture": {
          "index": 1
        }
      }
    }
  ],
  "meshes": [
    {
      "name": "defaultMaterial",
      "primitives": [
        {
          "attributes": {
            "NORMAL": 1,
            "POSITION": 0,
            "TANGENT": 2,
            "TEXCOORD_0": 3
          },
          "indices": 4,
          "material": 0,
          "mode": 4
        }
      ]
    }
  ],
  "nodes": [
    {
      "children": [
        1
      ],
      "matrix": [
        1.0,
        0.0,
        0.0,
        0.0,
        0.0,
        2.220446049250313e-16,
        -1.0,
        0.0,
        0.0,
        1.0,
        2.220446049250313e-16,
        0.0,
        0.0,
        0.0,
        0.0,
        1.0
      ],
      "name": "Sketchfab_model"
    },
    {
      "children": [
        2
      ],
      "matrix": [
        1.0,
        0.0,
        0.0,
        0.0,
        0.0,
        -4.371139006309477e-08,
        0.999999999999999,
        0.0,
        0.0,
        -0.999999999999999,
        -4.371139006309477e-08,
        0.0,
        0.0,
        0.0,
        0.0,
        1.0
      ],
      "name": "Collada visual scene group"
    },
    {
      "children": [
        3
      ],
      "name": "group2"
    },
    {
      "children": [
        4
      ],
      "matrix": [
        0.0,
        0.0,
        -1.216548,
        0.0,
        0.0,
        1.216548,
        0.0,
        0.0,
        1.216548,
        0.0,
        0.0,
        0.0,
        -3.531857,
        -0.01275,
        0.750885,
        1.0
      ],
      "name": "pasted__polySurface2"
    },
    {
      "mesh": 0,
      "name": "defaultMaterial"
    }
  ],
  "samplers": [
    {
      "magFilter": 9729,
      "minFilter": 9987,
      "wrapS": 10497,
      "wrapT": 10497
    }
  ],
  "scene": 0,
  "scenes": [
    {
      "name": "Sketchfab_Scene",
      "nodes": [
        0
      ]
    }
  ],
  "textures": [
    {
      "sampler": 0,
      "source": 0
    },
    {
      "sampler": 0,
      "source": 1
    },
    {
      "sampler": 0,
      "source": 2
    }
  ]
}
